<svg width="197" height="76" viewBox="0 0 197 76" fill="none" xmlns="http://www.w3.org/2000/svg">
<path d="M124.031 25.7279C129.096 11.328 142.832 1 158.969 1C179.414 1 196 17.5635 196 38.0051C196 58.4467 179.425 75 158.969 75C142.791 75 129.045 64.6414 124 50.2007" stroke="#171616" stroke-width="0.5" stroke-miterlimit="10"/>
<path d="M12.5625 43.8555C12.5625 43.9805 12.5586 44.0898 12.5508 44.1836C12.543 44.2773 12.5273 44.3594 12.5039 44.4297C12.4883 44.5 12.4648 44.5625 12.4336 44.6172C12.4023 44.6719 12.3477 44.7383 12.2695 44.8164C12.1914 44.8945 12.0273 45.0156 11.7773 45.1797C11.5273 45.3359 11.2148 45.4922 10.8398 45.6484C10.4727 45.7969 10.0469 45.9219 9.5625 46.0234C9.08594 46.1328 8.5625 46.1875 7.99219 46.1875C7.00781 46.1875 6.11719 46.0234 5.32031 45.6953C4.53125 45.3672 3.85547 44.8828 3.29297 44.2422C2.73828 43.6016 2.30859 42.8125 2.00391 41.875C1.70703 40.9297 1.55859 39.8438 1.55859 38.6172C1.55859 37.3594 1.71875 36.2383 2.03906 35.2539C2.36719 34.2695 2.82422 33.4375 3.41016 32.7578C3.99609 32.0703 4.69531 31.5469 5.50781 31.1875C6.32812 30.8281 7.23438 30.6484 8.22656 30.6484C8.66406 30.6484 9.08984 30.6914 9.50391 30.7773C9.91797 30.8555 10.3008 30.957 10.6523 31.082C11.0039 31.207 11.3164 31.3516 11.5898 31.5156C11.8633 31.6797 12.0508 31.8164 12.1523 31.9258C12.2617 32.0273 12.332 32.1055 12.3633 32.1602C12.3945 32.2148 12.418 32.2812 12.4336 32.3594C12.457 32.4297 12.4727 32.5156 12.4805 32.6172C12.4961 32.7188 12.5039 32.8398 12.5039 32.9805C12.5039 33.1367 12.4961 33.2695 12.4805 33.3789C12.4648 33.4883 12.4414 33.582 12.4102 33.6602C12.3789 33.7305 12.3398 33.7852 12.293 33.8242C12.2539 33.8555 12.2031 33.8711 12.1406 33.8711C12.0312 33.8711 11.8789 33.7969 11.6836 33.6484C11.4883 33.4922 11.2344 33.3242 10.9219 33.1445C10.6172 32.957 10.2422 32.7891 9.79688 32.6406C9.35938 32.4844 8.83203 32.4062 8.21484 32.4062C7.54297 32.4062 6.92969 32.543 6.375 32.8164C5.82812 33.082 5.35938 33.4766 4.96875 34C4.57812 34.5234 4.27344 35.1641 4.05469 35.9219C3.84375 36.6719 3.73828 37.5312 3.73828 38.5C3.73828 39.4609 3.83984 40.3125 4.04297 41.0547C4.25391 41.7891 4.55078 42.4062 4.93359 42.9062C5.32422 43.3984 5.80078 43.7734 6.36328 44.0312C6.92578 44.2812 7.5625 44.4062 8.27344 44.4062C8.875 44.4062 9.39844 44.332 9.84375 44.1836C10.2969 44.0352 10.6797 43.8711 10.9922 43.6914C11.3125 43.5039 11.5742 43.3359 11.7773 43.1875C11.9805 43.0391 12.1406 42.9648 12.2578 42.9648C12.3125 42.9648 12.3594 42.9766 12.3984 43C12.4375 43.0234 12.4688 43.0703 12.4922 43.1406C12.5156 43.2031 12.5312 43.293 12.5391 43.4102C12.5547 43.5273 12.5625 43.6758 12.5625 43.8555ZM24.8203 40.3164C24.8203 41.1758 24.707 41.9688 24.4805 42.6953C24.2539 43.4141 23.9141 44.0352 23.4609 44.5586C23.0156 45.082 22.4531 45.4922 21.7734 45.7891C21.1016 46.0781 20.3203 46.2227 19.4297 46.2227C18.5625 46.2227 17.8047 46.0938 17.1562 45.8359C16.5156 45.5781 15.9805 45.2031 15.5508 44.7109C15.1211 44.2188 14.8008 43.6211 14.5898 42.918C14.3789 42.2148 14.2734 41.418 14.2734 40.5273C14.2734 39.668 14.3828 38.8789 14.6016 38.1602C14.8281 37.4336 15.1641 36.8086 15.6094 36.2852C16.0625 35.7617 16.625 35.3555 17.2969 35.0664C17.9688 34.7773 18.7539 34.6328 19.6523 34.6328C20.5195 34.6328 21.2734 34.7617 21.9141 35.0195C22.5625 35.2773 23.1016 35.6523 23.5312 36.1445C23.9609 36.6367 24.2812 37.2344 24.4922 37.9375C24.7109 38.6406 24.8203 39.4336 24.8203 40.3164ZM22.7812 40.4453C22.7812 39.875 22.7266 39.3359 22.6172 38.8281C22.5156 38.3203 22.3438 37.875 22.1016 37.4922C21.8594 37.1094 21.5312 36.8086 21.1172 36.5898C20.7031 36.3633 20.1875 36.25 19.5703 36.25C19 36.25 18.5078 36.3516 18.0938 36.5547C17.6875 36.7578 17.3516 37.0469 17.0859 37.4219C16.8203 37.7891 16.6211 38.2266 16.4883 38.7344C16.3633 39.2422 16.3008 39.7969 16.3008 40.3984C16.3008 40.9766 16.3516 41.5195 16.4531 42.0273C16.5625 42.5352 16.7383 42.9805 16.9805 43.3633C17.2305 43.7383 17.5625 44.0391 17.9766 44.2656C18.3906 44.4844 18.9062 44.5938 19.5234 44.5938C20.0859 44.5938 20.5742 44.4922 20.9883 44.2891C21.4023 44.0859 21.7422 43.8008 22.0078 43.4336C22.2734 43.0664 22.4688 42.6289 22.5938 42.1211C22.7188 41.6133 22.7812 41.0547 22.7812 40.4453ZM43.3125 45.707C43.3125 45.7695 43.2969 45.8242 43.2656 45.8711C43.2344 45.9102 43.1836 45.9453 43.1133 45.9766C43.043 46.0078 42.9453 46.0312 42.8203 46.0469C42.6953 46.0625 42.5391 46.0703 42.3516 46.0703C42.1562 46.0703 41.9961 46.0625 41.8711 46.0469C41.7461 46.0312 41.6445 46.0078 41.5664 45.9766C41.4961 45.9453 41.4453 45.9102 41.4141 45.8711C41.3828 45.8242 41.3672 45.7695 41.3672 45.707V39.2969C41.3672 38.8516 41.3281 38.4453 41.25 38.0781C41.1719 37.7109 41.0469 37.3945 40.875 37.1289C40.7031 36.8633 40.4844 36.6602 40.2188 36.5195C39.9531 36.3789 39.6406 36.3086 39.2812 36.3086C38.8359 36.3086 38.3867 36.4805 37.9336 36.8242C37.4883 37.168 36.9961 37.6719 36.457 38.3359V45.707C36.457 45.7695 36.4414 45.8242 36.4102 45.8711C36.3789 45.9102 36.3242 45.9453 36.2461 45.9766C36.1758 46.0078 36.0781 46.0312 35.9531 46.0469C35.8281 46.0625 35.6719 46.0703 35.4844 46.0703C35.3047 46.0703 35.1484 46.0625 35.0156 46.0469C34.8906 46.0312 34.7891 46.0078 34.7109 45.9766C34.6406 45.9453 34.5898 45.9102 34.5586 45.8711C34.5352 45.8242 34.5234 45.7695 34.5234 45.707V39.2969C34.5234 38.8516 34.4805 38.4453 34.3945 38.0781C34.3086 37.7109 34.1797 37.3945 34.0078 37.1289C33.8359 36.8633 33.6172 36.6602 33.3516 36.5195C33.0938 36.3789 32.7852 36.3086 32.4258 36.3086C31.9805 36.3086 31.5312 36.4805 31.0781 36.8242C30.625 37.168 30.1328 37.6719 29.6016 38.3359V45.707C29.6016 45.7695 29.5859 45.8242 29.5547 45.8711C29.5234 45.9102 29.4727 45.9453 29.4023 45.9766C29.332 46.0078 29.2344 46.0312 29.1094 46.0469C28.9844 46.0625 28.8242 46.0703 28.6289 46.0703C28.4414 46.0703 28.2852 46.0625 28.1602 46.0469C28.0352 46.0312 27.9336 46.0078 27.8555 45.9766C27.7852 45.9453 27.7344 45.9102 27.7031 45.8711C27.6797 45.8242 27.668 45.7695 27.668 45.707V35.1602C27.668 35.0977 27.6797 35.0469 27.7031 35.0078C27.7266 34.9609 27.7734 34.9219 27.8438 34.8906C27.9141 34.8516 28.0039 34.8281 28.1133 34.8203C28.2227 34.8047 28.3672 34.7969 28.5469 34.7969C28.7188 34.7969 28.8594 34.8047 28.9688 34.8203C29.0859 34.8281 29.1758 34.8516 29.2383 34.8906C29.3008 34.9219 29.3438 34.9609 29.3672 35.0078C29.3984 35.0469 29.4141 35.0977 29.4141 35.1602V36.5547C30.0078 35.8906 30.582 35.4062 31.1367 35.1016C31.6992 34.7891 32.2656 34.6328 32.8359 34.6328C33.2734 34.6328 33.6641 34.6836 34.0078 34.7852C34.3594 34.8867 34.668 35.0312 34.9336 35.2188C35.1992 35.3984 35.4258 35.6172 35.6133 35.875C35.8008 36.125 35.957 36.4062 36.082 36.7188C36.4336 36.3359 36.7656 36.0117 37.0781 35.7461C37.3984 35.4805 37.7031 35.2656 37.9922 35.1016C38.2891 34.9375 38.5742 34.8203 38.8477 34.75C39.1289 34.6719 39.4102 34.6328 39.6914 34.6328C40.3711 34.6328 40.9414 34.7539 41.4023 34.9961C41.8633 35.2305 42.2344 35.5469 42.5156 35.9453C42.8047 36.3438 43.0078 36.8125 43.125 37.3516C43.25 37.8828 43.3125 38.4453 43.3125 39.0391V45.707ZM56.543 40.2695C56.543 41.1914 56.4414 42.0195 56.2383 42.7539C56.043 43.4883 55.75 44.1133 55.3594 44.6289C54.9766 45.1367 54.5 45.5312 53.9297 45.8125C53.3594 46.0859 52.707 46.2227 51.9727 46.2227C51.6602 46.2227 51.3711 46.1914 51.1055 46.1289C50.8398 46.0664 50.5781 45.9688 50.3203 45.8359C50.0703 45.7031 49.8203 45.5352 49.5703 45.332C49.3203 45.1289 49.0547 44.8906 48.7734 44.6172V49.8906C48.7734 49.9531 48.7578 50.0078 48.7266 50.0547C48.6953 50.1016 48.6445 50.1406 48.5742 50.1719C48.5039 50.2031 48.4062 50.2266 48.2812 50.2422C48.1562 50.2578 47.9961 50.2656 47.8008 50.2656C47.6133 50.2656 47.457 50.2578 47.332 50.2422C47.207 50.2266 47.1055 50.2031 47.0273 50.1719C46.957 50.1406 46.9062 50.1016 46.875 50.0547C46.8516 50.0078 46.8398 49.9531 46.8398 49.8906V35.1602C46.8398 35.0898 46.8516 35.0352 46.875 34.9961C46.8984 34.9492 46.9453 34.9102 47.0156 34.8789C47.0859 34.8477 47.1758 34.8281 47.2852 34.8203C47.3945 34.8047 47.5273 34.7969 47.6836 34.7969C47.8477 34.7969 47.9805 34.8047 48.082 34.8203C48.1914 34.8281 48.2812 34.8477 48.3516 34.8789C48.4219 34.9102 48.4688 34.9492 48.4922 34.9961C48.5234 35.0352 48.5391 35.0898 48.5391 35.1602V36.5781C48.8594 36.25 49.168 35.9648 49.4648 35.7227C49.7617 35.4805 50.0586 35.2812 50.3555 35.125C50.6602 34.9609 50.9688 34.8398 51.2812 34.7617C51.6016 34.6758 51.9375 34.6328 52.2891 34.6328C53.0547 34.6328 53.707 34.7812 54.2461 35.0781C54.7852 35.375 55.2227 35.7812 55.5586 36.2969C55.9023 36.8125 56.1523 37.4141 56.3086 38.1016C56.4648 38.7812 56.543 39.5039 56.543 40.2695ZM54.5039 40.4922C54.5039 39.9531 54.4609 39.4336 54.375 38.9336C54.2969 38.4258 54.1562 37.9766 53.9531 37.5859C53.7578 37.1953 53.4922 36.8828 53.1562 36.6484C52.8203 36.4141 52.4023 36.2969 51.9023 36.2969C51.6523 36.2969 51.4062 36.3359 51.1641 36.4141C50.9219 36.4844 50.6758 36.6016 50.4258 36.7656C50.1758 36.9219 49.9141 37.1328 49.6406 37.3984C49.3672 37.6562 49.0781 37.9766 48.7734 38.3594V42.5547C49.3047 43.2031 49.8086 43.6992 50.2852 44.043C50.7617 44.3867 51.2617 44.5586 51.7852 44.5586C52.2695 44.5586 52.6836 44.4414 53.0273 44.207C53.3789 43.9727 53.6602 43.6602 53.8711 43.2695C54.0898 42.8789 54.25 42.4414 54.3516 41.957C54.4531 41.4727 54.5039 40.9844 54.5039 40.4922ZM65.6133 35.8516C65.6133 36.0234 65.6094 36.168 65.6016 36.2852C65.5938 36.4023 65.5781 36.4961 65.5547 36.5664C65.5312 36.6289 65.5 36.6797 65.4609 36.7188C65.4297 36.75 65.3828 36.7656 65.3203 36.7656C65.2578 36.7656 65.1797 36.75 65.0859 36.7188C65 36.6797 64.8984 36.6445 64.7812 36.6133C64.6719 36.5742 64.5469 36.5391 64.4062 36.5078C64.2656 36.4766 64.1133 36.4609 63.9492 36.4609C63.7539 36.4609 63.5625 36.5 63.375 36.5781C63.1875 36.6562 62.9883 36.7852 62.7773 36.9648C62.5742 37.1445 62.3594 37.3828 62.1328 37.6797C61.9062 37.9766 61.6562 38.3398 61.3828 38.7695V45.707C61.3828 45.7695 61.3672 45.8242 61.3359 45.8711C61.3047 45.9102 61.2539 45.9453 61.1836 45.9766C61.1133 46.0078 61.0156 46.0312 60.8906 46.0469C60.7656 46.0625 60.6055 46.0703 60.4102 46.0703C60.2227 46.0703 60.0664 46.0625 59.9414 46.0469C59.8164 46.0312 59.7148 46.0078 59.6367 45.9766C59.5664 45.9453 59.5156 45.9102 59.4844 45.8711C59.4609 45.8242 59.4492 45.7695 59.4492 45.707V35.1602C59.4492 35.0977 59.4609 35.0469 59.4844 35.0078C59.5078 34.9609 59.5547 34.9219 59.625 34.8906C59.6953 34.8516 59.7852 34.8281 59.8945 34.8203C60.0039 34.8047 60.1484 34.7969 60.3281 34.7969C60.5 34.7969 60.6406 34.8047 60.75 34.8203C60.8672 34.8281 60.957 34.8516 61.0195 34.8906C61.082 34.9219 61.125 34.9609 61.1484 35.0078C61.1797 35.0469 61.1953 35.0977 61.1953 35.1602V36.6953C61.4844 36.2734 61.7539 35.9297 62.0039 35.6641C62.2617 35.3984 62.5039 35.1914 62.7305 35.043C62.957 34.8867 63.1797 34.7812 63.3984 34.7266C63.625 34.6641 63.8516 34.6328 64.0781 34.6328C64.1797 34.6328 64.293 34.6406 64.418 34.6562C64.5508 34.6641 64.6875 34.6836 64.8281 34.7148C64.9688 34.7461 65.0938 34.7812 65.2031 34.8203C65.3203 34.8594 65.4023 34.8984 65.4492 34.9375C65.4961 34.9766 65.5273 35.0156 65.543 35.0547C65.5586 35.0859 65.5703 35.1289 65.5781 35.1836C65.5938 35.2383 65.6016 35.3203 65.6016 35.4297C65.6094 35.5312 65.6133 35.6719 65.6133 35.8516ZM75.2695 45.7188C75.2695 45.8125 75.2383 45.8828 75.1758 45.9297C75.1133 45.9766 75.0273 46.0117 74.918 46.0352C74.8086 46.0586 74.6484 46.0703 74.4375 46.0703C74.2344 46.0703 74.0703 46.0586 73.9453 46.0352C73.8281 46.0117 73.7422 45.9766 73.6875 45.9297C73.6328 45.8828 73.6055 45.8125 73.6055 45.7188V44.6641C73.1445 45.1562 72.6289 45.5391 72.0586 45.8125C71.4961 46.0859 70.8984 46.2227 70.2656 46.2227C69.7109 46.2227 69.207 46.1484 68.7539 46C68.3086 45.8594 67.9258 45.6523 67.6055 45.3789C67.293 45.1055 67.0469 44.7695 66.8672 44.3711C66.6953 43.9727 66.6094 43.5195 66.6094 43.0117C66.6094 42.418 66.7305 41.9023 66.9727 41.4648C67.2148 41.0273 67.5625 40.6641 68.0156 40.375C68.4688 40.0859 69.0234 39.8711 69.6797 39.7305C70.3359 39.582 71.0742 39.5078 71.8945 39.5078H73.3477V38.6875C73.3477 38.2812 73.3047 37.9219 73.2188 37.6094C73.1328 37.2969 72.9922 37.0391 72.7969 36.8359C72.6094 36.625 72.3633 36.4688 72.0586 36.3672C71.7539 36.2578 71.3789 36.2031 70.9336 36.2031C70.457 36.2031 70.0273 36.2617 69.6445 36.3789C69.2695 36.4883 68.9375 36.6133 68.6484 36.7539C68.3672 36.8867 68.1289 37.0117 67.9336 37.1289C67.7461 37.2383 67.6055 37.293 67.5117 37.293C67.4492 37.293 67.3945 37.2773 67.3477 37.2461C67.3008 37.2148 67.2578 37.168 67.2188 37.1055C67.1875 37.043 67.1641 36.9648 67.1484 36.8711C67.1328 36.7695 67.125 36.6602 67.125 36.543C67.125 36.3477 67.1367 36.1953 67.1602 36.0859C67.1914 35.9688 67.2578 35.8594 67.3594 35.7578C67.4688 35.6562 67.6523 35.5391 67.9102 35.4062C68.168 35.2656 68.4648 35.1406 68.8008 35.0312C69.1367 34.9141 69.5039 34.8203 69.9023 34.75C70.3008 34.6719 70.7031 34.6328 71.1094 34.6328C71.8672 34.6328 72.5117 34.7188 73.043 34.8906C73.5742 35.0625 74.0039 35.3164 74.332 35.6523C74.6602 35.9805 74.8984 36.3906 75.0469 36.8828C75.1953 37.375 75.2695 37.9492 75.2695 38.6055V45.7188ZM73.3477 40.9023H71.6953C71.1641 40.9023 70.7031 40.9492 70.3125 41.043C69.9219 41.1289 69.5977 41.2617 69.3398 41.4414C69.082 41.6133 68.8906 41.8242 68.7656 42.0742C68.6484 42.3164 68.5898 42.5977 68.5898 42.918C68.5898 43.4648 68.7617 43.9023 69.1055 44.2305C69.457 44.5508 69.9453 44.7109 70.5703 44.7109C71.0781 44.7109 71.5469 44.582 71.9766 44.3242C72.4141 44.0664 72.8711 43.6719 73.3477 43.1406V40.9023ZM84.9961 35.8516C84.9961 36.0234 84.9922 36.168 84.9844 36.2852C84.9766 36.4023 84.9609 36.4961 84.9375 36.5664C84.9141 36.6289 84.8828 36.6797 84.8438 36.7188C84.8125 36.75 84.7656 36.7656 84.7031 36.7656C84.6406 36.7656 84.5625 36.75 84.4688 36.7188C84.3828 36.6797 84.2812 36.6445 84.1641 36.6133C84.0547 36.5742 83.9297 36.5391 83.7891 36.5078C83.6484 36.4766 83.4961 36.4609 83.332 36.4609C83.1367 36.4609 82.9453 36.5 82.7578 36.5781C82.5703 36.6562 82.3711 36.7852 82.1602 36.9648C81.957 37.1445 81.7422 37.3828 81.5156 37.6797C81.2891 37.9766 81.0391 38.3398 80.7656 38.7695V45.707C80.7656 45.7695 80.75 45.8242 80.7188 45.8711C80.6875 45.9102 80.6367 45.9453 80.5664 45.9766C80.4961 46.0078 80.3984 46.0312 80.2734 46.0469C80.1484 46.0625 79.9883 46.0703 79.793 46.0703C79.6055 46.0703 79.4492 46.0625 79.3242 46.0469C79.1992 46.0312 79.0977 46.0078 79.0195 45.9766C78.9492 45.9453 78.8984 45.9102 78.8672 45.8711C78.8438 45.8242 78.832 45.7695 78.832 45.707V35.1602C78.832 35.0977 78.8438 35.0469 78.8672 35.0078C78.8906 34.9609 78.9375 34.9219 79.0078 34.8906C79.0781 34.8516 79.168 34.8281 79.2773 34.8203C79.3867 34.8047 79.5312 34.7969 79.7109 34.7969C79.8828 34.7969 80.0234 34.8047 80.1328 34.8203C80.25 34.8281 80.3398 34.8516 80.4023 34.8906C80.4648 34.9219 80.5078 34.9609 80.5312 35.0078C80.5625 35.0469 80.5781 35.0977 80.5781 35.1602V36.6953C80.8672 36.2734 81.1367 35.9297 81.3867 35.6641C81.6445 35.3984 81.8867 35.1914 82.1133 35.043C82.3398 34.8867 82.5625 34.7812 82.7812 34.7266C83.0078 34.6641 83.2344 34.6328 83.4609 34.6328C83.5625 34.6328 83.6758 34.6406 83.8008 34.6562C83.9336 34.6641 84.0703 34.6836 84.2109 34.7148C84.3516 34.7461 84.4766 34.7812 84.5859 34.8203C84.7031 34.8594 84.7852 34.8984 84.832 34.9375C84.8789 34.9766 84.9102 35.0156 84.9258 35.0547C84.9414 35.0859 84.9531 35.1289 84.9609 35.1836C84.9766 35.2383 84.9844 35.3203 84.9844 35.4297C84.9922 35.5312 84.9961 35.6719 84.9961 35.8516ZM100.582 45.7188C100.582 45.8125 100.551 45.8828 100.488 45.9297C100.426 45.9766 100.34 46.0117 100.23 46.0352C100.121 46.0586 99.9609 46.0703 99.75 46.0703C99.5469 46.0703 99.3828 46.0586 99.2578 46.0352C99.1406 46.0117 99.0547 45.9766 99 45.9297C98.9453 45.8828 98.918 45.8125 98.918 45.7188V44.6641C98.457 45.1562 97.9414 45.5391 97.3711 45.8125C96.8086 46.0859 96.2109 46.2227 95.5781 46.2227C95.0234 46.2227 94.5195 46.1484 94.0664 46C93.6211 45.8594 93.2383 45.6523 92.918 45.3789C92.6055 45.1055 92.3594 44.7695 92.1797 44.3711C92.0078 43.9727 91.9219 43.5195 91.9219 43.0117C91.9219 42.418 92.043 41.9023 92.2852 41.4648C92.5273 41.0273 92.875 40.6641 93.3281 40.375C93.7812 40.0859 94.3359 39.8711 94.9922 39.7305C95.6484 39.582 96.3867 39.5078 97.207 39.5078H98.6602V38.6875C98.6602 38.2812 98.6172 37.9219 98.5312 37.6094C98.4453 37.2969 98.3047 37.0391 98.1094 36.8359C97.9219 36.625 97.6758 36.4688 97.3711 36.3672C97.0664 36.2578 96.6914 36.2031 96.2461 36.2031C95.7695 36.2031 95.3398 36.2617 94.957 36.3789C94.582 36.4883 94.25 36.6133 93.9609 36.7539C93.6797 36.8867 93.4414 37.0117 93.2461 37.1289C93.0586 37.2383 92.918 37.293 92.8242 37.293C92.7617 37.293 92.707 37.2773 92.6602 37.2461C92.6133 37.2148 92.5703 37.168 92.5312 37.1055C92.5 37.043 92.4766 36.9648 92.4609 36.8711C92.4453 36.7695 92.4375 36.6602 92.4375 36.543C92.4375 36.3477 92.4492 36.1953 92.4727 36.0859C92.5039 35.9688 92.5703 35.8594 92.6719 35.7578C92.7812 35.6562 92.9648 35.5391 93.2227 35.4062C93.4805 35.2656 93.7773 35.1406 94.1133 35.0312C94.4492 34.9141 94.8164 34.8203 95.2148 34.75C95.6133 34.6719 96.0156 34.6328 96.4219 34.6328C97.1797 34.6328 97.8242 34.7188 98.3555 34.8906C98.8867 35.0625 99.3164 35.3164 99.6445 35.6523C99.9727 35.9805 100.211 36.3906 100.359 36.8828C100.508 37.375 100.582 37.9492 100.582 38.6055V45.7188ZM98.6602 40.9023H97.0078C96.4766 40.9023 96.0156 40.9492 95.625 41.043C95.2344 41.1289 94.9102 41.2617 94.6523 41.4414C94.3945 41.6133 94.2031 41.8242 94.0781 42.0742C93.9609 42.3164 93.9023 42.5977 93.9023 42.918C93.9023 43.4648 94.0742 43.9023 94.418 44.2305C94.7695 44.5508 95.2578 44.7109 95.8828 44.7109C96.3906 44.7109 96.8594 44.582 97.2891 44.3242C97.7266 44.0664 98.1836 43.6719 98.6602 43.1406V40.9023ZM113.227 45.707C113.227 45.7695 113.211 45.8242 113.18 45.8711C113.148 45.9102 113.098 45.9453 113.027 45.9766C112.957 46.0078 112.859 46.0312 112.734 46.0469C112.609 46.0625 112.453 46.0703 112.266 46.0703C112.07 46.0703 111.91 46.0625 111.785 46.0469C111.66 46.0312 111.562 46.0078 111.492 45.9766C111.422 45.9453 111.371 45.9102 111.34 45.8711C111.309 45.8242 111.293 45.7695 111.293 45.707V39.5312C111.293 38.9297 111.246 38.4453 111.152 38.0781C111.059 37.7109 110.922 37.3945 110.742 37.1289C110.562 36.8633 110.328 36.6602 110.039 36.5195C109.758 36.3789 109.43 36.3086 109.055 36.3086C108.57 36.3086 108.086 36.4805 107.602 36.8242C107.117 37.168 106.609 37.6719 106.078 38.3359V45.707C106.078 45.7695 106.062 45.8242 106.031 45.8711C106 45.9102 105.949 45.9453 105.879 45.9766C105.809 46.0078 105.711 46.0312 105.586 46.0469C105.461 46.0625 105.301 46.0703 105.105 46.0703C104.918 46.0703 104.762 46.0625 104.637 46.0469C104.512 46.0312 104.41 46.0078 104.332 45.9766C104.262 45.9453 104.211 45.9102 104.18 45.8711C104.156 45.8242 104.145 45.7695 104.145 45.707V30.0508C104.145 29.9883 104.156 29.9336 104.18 29.8867C104.211 29.8398 104.262 29.8008 104.332 29.7695C104.41 29.7383 104.512 29.7148 104.637 29.6992C104.762 29.6836 104.918 29.6758 105.105 29.6758C105.301 29.6758 105.461 29.6836 105.586 29.6992C105.711 29.7148 105.809 29.7383 105.879 29.7695C105.949 29.8008 106 29.8398 106.031 29.8867C106.062 29.9336 106.078 29.9883 106.078 30.0508V36.3672C106.633 35.7812 107.191 35.3477 107.754 35.0664C108.316 34.7773 108.883 34.6328 109.453 34.6328C110.156 34.6328 110.746 34.7539 111.223 34.9961C111.707 35.2305 112.098 35.5469 112.395 35.9453C112.691 36.3438 112.902 36.8125 113.027 37.3516C113.16 37.8828 113.227 38.5273 113.227 39.2852V45.707ZM126.562 40.3164C126.562 41.1758 126.449 41.9688 126.223 42.6953C125.996 43.4141 125.656 44.0352 125.203 44.5586C124.758 45.082 124.195 45.4922 123.516 45.7891C122.844 46.0781 122.062 46.2227 121.172 46.2227C120.305 46.2227 119.547 46.0938 118.898 45.8359C118.258 45.5781 117.723 45.2031 117.293 44.7109C116.863 44.2188 116.543 43.6211 116.332 42.918C116.121 42.2148 116.016 41.418 116.016 40.5273C116.016 39.668 116.125 38.8789 116.344 38.1602C116.57 37.4336 116.906 36.8086 117.352 36.2852C117.805 35.7617 118.367 35.3555 119.039 35.0664C119.711 34.7773 120.496 34.6328 121.395 34.6328C122.262 34.6328 123.016 34.7617 123.656 35.0195C124.305 35.2773 124.844 35.6523 125.273 36.1445C125.703 36.6367 126.023 37.2344 126.234 37.9375C126.453 38.6406 126.562 39.4336 126.562 40.3164ZM124.523 40.4453C124.523 39.875 124.469 39.3359 124.359 38.8281C124.258 38.3203 124.086 37.875 123.844 37.4922C123.602 37.1094 123.273 36.8086 122.859 36.5898C122.445 36.3633 121.93 36.25 121.312 36.25C120.742 36.25 120.25 36.3516 119.836 36.5547C119.43 36.7578 119.094 37.0469 118.828 37.4219C118.562 37.7891 118.363 38.2266 118.23 38.7344C118.105 39.2422 118.043 39.7969 118.043 40.3984C118.043 40.9766 118.094 41.5195 118.195 42.0273C118.305 42.5352 118.48 42.9805 118.723 43.3633C118.973 43.7383 119.305 44.0391 119.719 44.2656C120.133 44.4844 120.648 44.5938 121.266 44.5938C121.828 44.5938 122.316 44.4922 122.73 44.2891C123.145 44.0859 123.484 43.8008 123.75 43.4336C124.016 43.0664 124.211 42.6289 124.336 42.1211C124.461 41.6133 124.523 41.0547 124.523 40.4453ZM135.574 35.8516C135.574 36.0234 135.57 36.168 135.562 36.2852C135.555 36.4023 135.539 36.4961 135.516 36.5664C135.492 36.6289 135.461 36.6797 135.422 36.7188C135.391 36.75 135.344 36.7656 135.281 36.7656C135.219 36.7656 135.141 36.75 135.047 36.7188C134.961 36.6797 134.859 36.6445 134.742 36.6133C134.633 36.5742 134.508 36.5391 134.367 36.5078C134.227 36.4766 134.074 36.4609 133.91 36.4609C133.715 36.4609 133.523 36.5 133.336 36.5781C133.148 36.6562 132.949 36.7852 132.738 36.9648C132.535 37.1445 132.32 37.3828 132.094 37.6797C131.867 37.9766 131.617 38.3398 131.344 38.7695V45.707C131.344 45.7695 131.328 45.8242 131.297 45.8711C131.266 45.9102 131.215 45.9453 131.145 45.9766C131.074 46.0078 130.977 46.0312 130.852 46.0469C130.727 46.0625 130.566 46.0703 130.371 46.0703C130.184 46.0703 130.027 46.0625 129.902 46.0469C129.777 46.0312 129.676 46.0078 129.598 45.9766C129.527 45.9453 129.477 45.9102 129.445 45.8711C129.422 45.8242 129.41 45.7695 129.41 45.707V35.1602C129.41 35.0977 129.422 35.0469 129.445 35.0078C129.469 34.9609 129.516 34.9219 129.586 34.8906C129.656 34.8516 129.746 34.8281 129.855 34.8203C129.965 34.8047 130.109 34.7969 130.289 34.7969C130.461 34.7969 130.602 34.8047 130.711 34.8203C130.828 34.8281 130.918 34.8516 130.98 34.8906C131.043 34.9219 131.086 34.9609 131.109 35.0078C131.141 35.0469 131.156 35.0977 131.156 35.1602V36.6953C131.445 36.2734 131.715 35.9297 131.965 35.6641C132.223 35.3984 132.465 35.1914 132.691 35.043C132.918 34.8867 133.141 34.7812 133.359 34.7266C133.586 34.6641 133.812 34.6328 134.039 34.6328C134.141 34.6328 134.254 34.6406 134.379 34.6562C134.512 34.6641 134.648 34.6836 134.789 34.7148C134.93 34.7461 135.055 34.7812 135.164 34.8203C135.281 34.8594 135.363 34.8984 135.41 34.9375C135.457 34.9766 135.488 35.0156 135.504 35.0547C135.52 35.0859 135.531 35.1289 135.539 35.1836C135.555 35.2383 135.562 35.3203 135.562 35.4297C135.57 35.5312 135.574 35.6719 135.574 35.8516ZM145.23 45.7188C145.23 45.8125 145.199 45.8828 145.137 45.9297C145.074 45.9766 144.988 46.0117 144.879 46.0352C144.77 46.0586 144.609 46.0703 144.398 46.0703C144.195 46.0703 144.031 46.0586 143.906 46.0352C143.789 46.0117 143.703 45.9766 143.648 45.9297C143.594 45.8828 143.566 45.8125 143.566 45.7188V44.6641C143.105 45.1562 142.59 45.5391 142.02 45.8125C141.457 46.0859 140.859 46.2227 140.227 46.2227C139.672 46.2227 139.168 46.1484 138.715 46C138.27 45.8594 137.887 45.6523 137.566 45.3789C137.254 45.1055 137.008 44.7695 136.828 44.3711C136.656 43.9727 136.57 43.5195 136.57 43.0117C136.57 42.418 136.691 41.9023 136.934 41.4648C137.176 41.0273 137.523 40.6641 137.977 40.375C138.43 40.0859 138.984 39.8711 139.641 39.7305C140.297 39.582 141.035 39.5078 141.855 39.5078H143.309V38.6875C143.309 38.2812 143.266 37.9219 143.18 37.6094C143.094 37.2969 142.953 37.0391 142.758 36.8359C142.57 36.625 142.324 36.4688 142.02 36.3672C141.715 36.2578 141.34 36.2031 140.895 36.2031C140.418 36.2031 139.988 36.2617 139.605 36.3789C139.23 36.4883 138.898 36.6133 138.609 36.7539C138.328 36.8867 138.09 37.0117 137.895 37.1289C137.707 37.2383 137.566 37.293 137.473 37.293C137.41 37.293 137.355 37.2773 137.309 37.2461C137.262 37.2148 137.219 37.168 137.18 37.1055C137.148 37.043 137.125 36.9648 137.109 36.8711C137.094 36.7695 137.086 36.6602 137.086 36.543C137.086 36.3477 137.098 36.1953 137.121 36.0859C137.152 35.9688 137.219 35.8594 137.32 35.7578C137.43 35.6562 137.613 35.5391 137.871 35.4062C138.129 35.2656 138.426 35.1406 138.762 35.0312C139.098 34.9141 139.465 34.8203 139.863 34.75C140.262 34.6719 140.664 34.6328 141.07 34.6328C141.828 34.6328 142.473 34.7188 143.004 34.8906C143.535 35.0625 143.965 35.3164 144.293 35.6523C144.621 35.9805 144.859 36.3906 145.008 36.8828C145.156 37.375 145.23 37.9492 145.23 38.6055V45.7188ZM143.309 40.9023H141.656C141.125 40.9023 140.664 40.9492 140.273 41.043C139.883 41.1289 139.559 41.2617 139.301 41.4414C139.043 41.6133 138.852 41.8242 138.727 42.0742C138.609 42.3164 138.551 42.5977 138.551 42.918C138.551 43.4648 138.723 43.9023 139.066 44.2305C139.418 44.5508 139.906 44.7109 140.531 44.7109C141.039 44.7109 141.508 44.582 141.938 44.3242C142.375 44.0664 142.832 43.6719 143.309 43.1406V40.9023Z" fill="#171616"/>
<path d="M159 38H173" stroke="#171616" stroke-linecap="round" stroke-linejoin="round"/>
<path d="M166 31L173 38L166 45" stroke="#171616" stroke-linecap="round" stroke-linejoin="round"/>
</svg>
