<svg width="281" height="61" viewBox="0 0 281 61" fill="none" xmlns="http://www.w3.org/2000/svg">
<path d="M0.394141 0.0599964C1.11414 0.36 2.01414 0.719999 2.91414 1.62V37.2C2.91414 40.32 1.65414 41.4 0.394141 42.06C2.19414 42 4.05414 42.06 5.91414 42.06C4.59414 41.4 3.39414 40.32 3.39414 37.2V2.1C4.35414 3.42 4.71414 4.38 5.37414 5.82L18.7541 36.96L34.0541 1.26V37.2C34.0541 40.32 32.8541 41.4 31.5341 42.06H40.4741C39.1541 41.4 37.9541 40.32 37.9541 37.2V4.86C37.9541 1.74 39.1541 0.659999 40.4741 0.0599964L34.0541 -2.86102e-06V0.0599964C29.5541 10.5 25.1141 20.94 20.6141 31.44L7.11414 -2.86102e-06L0.394141 0.0599964ZM43.6687 23.94C43.8487 24.72 44.6287 25.26 45.4687 25.26C46.1887 25.26 46.8487 24.84 47.2087 24.18C47.5687 23.46 47.3887 22.5 47.2687 21.72C47.0887 20.46 46.7887 19.5 47.4487 17.82C48.1687 16.02 51.0487 15.06 53.2087 15.06C54.1687 15.06 55.1887 15.36 56.1487 15.96C56.9287 16.5 57.5287 17.16 58.0087 17.94C58.4287 18.72 58.7287 19.56 58.8487 20.46C58.9687 21.06 59.0287 21.9 59.0287 22.56C58.9687 22.74 58.9687 23.04 58.8487 23.4C58.7287 23.7 58.6087 24 58.3687 24.36C58.1887 24.6 57.9487 24.9 57.6487 25.14C57.3487 25.38 57.0487 25.62 56.6287 25.86C55.9087 26.28 55.0687 26.7 54.1087 27.06C53.2087 27.42 52.0687 27.78 51.2287 28.08C50.2687 28.44 49.6687 28.68 48.9487 28.92C48.7087 29.04 48.4687 29.1 48.2287 29.22C47.2087 29.64 46.2487 30.06 45.4087 30.6C44.3887 31.26 43.6087 32.1 43.1287 33.06C43.0687 33.06 43.0687 33.12 43.0687 33.12C42.5287 34.2 42.2287 35.28 42.2887 36.48C42.2887 39.18 43.6087 41.04 46.0087 41.94C46.7287 42.18 47.4487 42.36 48.1687 42.42C48.4087 42.48 48.6487 42.48 48.9487 42.48C49.8487 42.54 50.8687 42.48 51.8887 42.3C52.3087 42.24 52.7287 42.12 53.2087 42C53.6287 41.88 54.1687 41.76 54.7087 41.52C55.5487 41.16 56.3887 40.68 57.1687 40.08C57.8887 39.42 58.4887 38.7 58.8487 37.92C58.9087 37.74 58.9687 37.62 59.0287 37.5V42.06H62.9287H65.4487C64.1287 41.4 62.9287 40.32 62.9287 37.2V24.66C62.9287 22.74 62.6887 20.82 62.0287 19.38C60.3487 15.84 56.4487 14.58 53.2087 14.58C50.1487 14.58 47.6887 15.6 45.8287 17.52C43.7887 19.74 43.1887 22.38 43.6687 23.94ZM59.0287 24.12V32.22C59.0887 34.14 59.1487 36.24 58.4287 37.68C58.0687 38.4 57.5287 39.06 56.8087 39.66C56.0887 40.2 55.2487 40.62 54.4687 40.86C53.9287 41.04 53.4487 41.16 53.0287 41.22C52.6087 41.28 52.1887 41.34 51.8287 41.34C50.8687 41.34 49.9687 41.16 49.2487 40.92C49.0087 40.86 48.8287 40.74 48.5887 40.68C48.0487 40.44 47.6287 40.14 47.2087 39.78C45.7687 38.1 45.3487 36.18 45.7687 34.2C45.7687 34.14 45.7687 34.14 45.7687 34.14C45.9487 33.48 46.1287 32.76 46.6687 31.98C47.1487 31.32 47.8087 30.66 48.7087 30.06C48.8887 29.94 49.0687 29.82 49.3087 29.7C49.9087 29.34 50.5687 28.98 51.4087 28.62C52.3087 28.26 53.3287 27.9 54.2887 27.48C55.2487 27.06 56.0887 26.7 56.8687 26.22C57.2287 25.98 57.5887 25.74 57.8887 25.5C58.2487 25.2 58.5487 24.9 58.7287 24.6C58.8487 24.42 58.9687 24.24 59.0287 24.12ZM91.0251 8.28C90.6051 8.28 90.1851 8.34 89.7651 8.46C87.5451 9.18 86.2251 11.1 85.5051 13.2C85.2051 14.04 85.0251 14.94 84.9651 15.36C83.4051 14.88 81.7851 14.58 80.1051 14.58C72.9651 14.58 67.1451 19.5 67.1451 25.62C67.1451 28.68 68.6451 31.62 71.2851 33.72C71.2251 33.72 71.1651 33.78 71.1051 33.84C70.5051 34.2 70.0251 34.8 69.5451 35.52C68.4051 37.26 68.3451 39.36 68.9451 41.04C69.8451 43.38 72.1851 44.82 74.2251 45.72C81.4851 48.54 88.3851 49.5 90.6051 52.5C91.4451 54.12 90.5451 55.98 89.1051 57.06C88.7451 57.3 88.2051 57.66 87.1251 58.2C81.7851 60.48 75.0051 60 71.2851 58.2C68.3451 56.64 68.4651 54.42 69.6651 52.44C70.0851 51.72 70.8051 51.06 70.8051 50.16C70.8051 49.14 69.9051 48.24 68.8851 48.24C67.5051 48.42 67.0251 49.2 66.7251 50.34C66.3651 51.9 66.6651 54 67.4451 55.44C67.8051 56.04 68.2251 56.64 68.8251 57.18C69.8451 58.02 70.6851 58.56 71.8251 58.98C75.6651 60.48 81.6651 60.84 86.6451 58.86C87.7251 58.44 88.9251 57.9 89.7651 57.24C90.5451 56.58 91.1451 55.8 91.6251 54.9C92.4651 53.34 92.6451 51.72 92.1051 50.16C90.4851 45.48 82.6851 44.4 79.2651 43.32C74.5851 41.82 70.3251 40.44 69.7851 37.86C69.6651 36.36 70.2051 35.04 71.3451 34.2C71.4651 34.14 71.5851 34.08 71.7051 34.02C74.0451 35.76 77.0451 36.66 80.1051 36.66C87.2451 36.66 93.0651 31.74 93.0651 25.62C93.0651 21.3 90.0651 17.34 85.4451 15.54C85.7451 14.28 86.1651 12.78 87.5451 12.06C88.1451 11.76 88.7451 11.7 89.2851 11.76C90.1851 11.94 91.0251 12.36 91.8651 12.12C92.5851 11.88 93.1251 11.34 93.2451 10.56C93.4251 9.48 92.7051 8.52 91.6251 8.34C91.4451 8.28 91.2651 8.28 91.0251 8.28ZM79.0251 15.18C82.8651 15.18 86.5251 17.82 88.3851 21.78C90.8451 27.12 89.1651 33.18 84.6051 35.34C79.9851 37.5 74.2851 34.86 71.8251 29.52C69.3651 24.12 71.0451 18.06 75.6051 15.96C76.6851 15.42 77.8251 15.18 79.0251 15.18ZM99.0416 8.4C97.6616 8.4 96.5816 9.54 96.5816 10.86C96.5816 12.24 97.6616 13.32 99.0416 13.32C100.362 13.32 101.502 12.24 101.502 10.86C101.502 9.54 100.362 8.4 99.0416 8.4ZM101.502 14.58C100.902 16.08 98.2016 17.94 96.1016 17.94C97.4216 18.54 97.6016 19.74 97.6016 25.68V37.2C97.6016 40.32 96.3416 41.4 95.0816 42.06H104.022C102.702 41.4 101.502 40.32 101.502 37.2V18.96V14.58ZM117.984 14.58C117.204 14.64 116.304 14.82 115.404 15.06C113.904 15.42 112.344 16.08 110.844 17.22C109.344 18.36 108.024 19.98 107.064 22.14C106.104 24.36 105.624 27 105.804 30.18C105.804 30.54 105.864 30.9 105.924 31.26C106.884 40.08 115.704 44.34 123.864 41.1C124.704 40.74 125.664 40.2 126.504 39.54C127.584 38.7 128.304 37.74 128.784 36.84C128.844 36.72 128.904 36.6 128.964 36.48C129.504 35.34 129.564 34.38 129.624 33.84C129.624 33.72 129.624 33.6 129.624 33.54H129.144C129.144 33.6 129.144 33.72 129.144 33.78C129.084 34.32 129.024 35.22 128.544 36.3C128.484 36.42 128.424 36.48 128.364 36.6C127.884 37.44 127.224 38.34 126.204 39.18C125.364 39.78 124.524 40.26 123.624 40.62C122.904 40.92 122.184 41.16 121.524 41.28C119.304 41.64 117.444 41.4 115.464 40.38C114.444 39.78 113.484 39 112.644 37.98C111.864 37.02 111.204 35.88 110.724 34.62C110.304 33.48 110.004 32.22 109.824 30.78C109.824 30.48 109.764 30.24 109.764 29.94C109.524 27.24 109.704 25.02 110.184 23.22C110.604 21.42 111.384 19.98 112.344 18.72C113.304 17.52 114.444 16.62 115.704 15.96C116.484 15.54 117.324 15.3 118.044 15.12C119.004 14.94 119.964 15 120.864 15.18C123.684 15.84 125.004 17.88 125.004 19.56C125.004 20.64 124.464 21.54 124.404 22.74C124.404 23.52 124.884 24.24 125.664 24.54C126.684 24.9 127.764 24.42 128.184 23.4C128.424 22.44 128.544 21 128.004 19.44C127.584 18.36 126.864 17.4 125.904 16.62C125.064 15.9 123.984 15.36 122.904 15C122.244 14.82 121.584 14.7 120.924 14.64C119.724 14.46 119.004 14.52 117.984 14.58ZM146.262 14.58C138.702 14.58 132.582 20.7 132.582 28.32C132.582 35.88 138.702 42 146.262 42C153.882 42 160.002 35.88 160.002 28.32C160.002 20.7 153.882 14.58 146.262 14.58ZM144.222 15.48C148.602 15.48 153.282 19.14 155.442 24.72C158.082 31.56 156.102 38.7 151.062 40.62C146.022 42.6 139.782 38.7 137.142 31.86C134.502 25.08 136.422 17.94 141.462 15.96C142.362 15.6 143.322 15.48 144.222 15.48ZM176.82 0.0599964V3.06C177.42 1.74 178.5 0.539997 181.62 0.539997H187.56C189.66 0.599997 191.1 1.44 191.1 4.56V37.2C191.1 40.32 189.84 41.4 188.52 42.06H197.52C196.2 41.4 195 40.32 195 37.2V4.56C195 1.44 196.38 0.599997 198.48 0.539997H204.48C207.54 0.539997 208.62 1.74 209.28 3.06V0.0599964H176.82ZM207.85 8.4C206.47 8.4 205.39 9.54 205.39 10.86C205.39 12.24 206.47 13.32 207.85 13.32C209.17 13.32 210.31 12.24 210.31 10.86C210.31 9.54 209.17 8.4 207.85 8.4ZM210.31 14.58C209.71 16.08 207.01 17.94 204.91 17.94C206.23 18.54 206.41 19.74 206.41 25.68V37.2C206.41 40.32 205.15 41.4 203.89 42.06H212.83C211.51 41.4 210.31 40.32 210.31 37.2V18.96V14.58ZM230.033 14.46C229.793 14.46 229.553 14.52 229.313 14.52C229.193 14.52 229.013 14.52 228.893 14.52C228.053 14.58 226.973 14.76 225.773 15.36C224.753 15.84 223.793 16.56 222.953 17.52C222.173 18.48 221.573 19.56 221.153 20.58C221.093 20.76 221.033 20.94 221.033 21.06V18.96V14.58C220.433 16.08 217.733 17.94 215.633 17.94C216.953 18.54 217.133 19.74 217.133 25.68V37.2C217.133 40.32 215.873 41.4 214.613 42H223.553C222.233 41.4 221.033 40.32 221.033 37.2V25.14C221.033 23.58 221.153 22.08 221.693 20.76C222.053 19.8 222.653 18.78 223.433 17.94C224.213 17.1 225.113 16.44 226.073 15.96C227.153 15.48 228.173 15.3 228.893 15.3C234.473 15.3 235.913 20.4 235.913 25.26V42.06H242.333C241.013 41.4 239.813 40.32 239.813 37.2V25.44C239.813 21.24 238.793 18.54 236.093 16.44C235.013 15.6 233.873 15.12 232.733 14.82C231.713 14.52 230.813 14.46 230.033 14.46ZM248.628 1.92C248.028 3.42 245.328 5.28 243.228 5.28C244.548 5.88 244.728 7.02 244.728 13.02V14.52H242.328V15H244.728V43.26C244.728 47.88 247.008 49.74 249.588 49.74H251.148C249.828 49.08 248.628 48 248.628 44.94V15H252.528V14.52H248.628V1.92ZM266.848 14.58C259.288 14.58 253.168 20.7 253.168 28.32C253.168 35.88 259.288 42 266.848 42C274.468 42 280.588 35.88 280.588 28.32C280.588 20.7 274.468 14.58 266.848 14.58ZM264.808 15.48C269.188 15.48 273.868 19.14 276.028 24.72C278.668 31.56 276.688 38.7 271.648 40.62C266.608 42.6 260.368 38.7 257.728 31.86C255.088 25.08 257.008 17.94 262.048 15.96C262.948 15.6 263.908 15.48 264.808 15.48Z" fill="#FDFDFD"/>
</svg>
