<svg width="225" height="62" viewBox="0 0 225 62" fill="none" xmlns="http://www.w3.org/2000/svg">
<path d="M0.72 12.4482C1.296 12.6882 2.016 12.9762 2.736 13.6962V42.1602C2.736 44.6562 1.728 45.5202 0.72 46.0482C2.16 46.0002 3.648 46.0482 5.136 46.0482C4.08 45.5202 3.12 44.6562 3.12 42.1602V14.0802C3.888 15.1362 4.176 15.9042 4.704 17.0562L15.408 41.9682L27.648 13.4082V42.1602C27.648 44.6562 26.688 45.5202 25.632 46.0482H32.784C31.728 45.5202 30.768 44.6562 30.768 42.1602V16.2882C30.768 13.7922 31.728 12.9282 32.784 12.4482L27.648 12.4002V12.4482C24.048 20.8002 20.496 29.1522 16.896 37.5522L6.096 12.4002L0.72 12.4482ZM35.3396 31.5522C35.4836 32.1762 36.1076 32.6082 36.7796 32.6082C37.3556 32.6082 37.8836 32.2722 38.1716 31.7442C38.4596 31.1682 38.3156 30.4002 38.2196 29.7762C38.0756 28.7682 37.8356 28.0002 38.3636 26.6562C38.9396 25.2162 41.2436 24.4482 42.9716 24.4482C43.7396 24.4482 44.5556 24.6882 45.3236 25.1682C45.9476 25.6002 46.4276 26.1282 46.8116 26.7522C47.1476 27.3762 47.3876 28.0482 47.4836 28.7682C47.5796 29.2482 47.6276 29.9202 47.6276 30.4482C47.5796 30.5922 47.5796 30.8322 47.4836 31.1202C47.3876 31.3602 47.2916 31.6002 47.0996 31.8882C46.9556 32.0802 46.7636 32.3202 46.5236 32.5122C46.2836 32.7042 46.0436 32.8962 45.7076 33.0882C45.1316 33.4242 44.4596 33.7602 43.6916 34.0482C42.9716 34.3362 42.0596 34.6242 41.3876 34.8642C40.6196 35.1522 40.1396 35.3442 39.5636 35.5362C39.3716 35.6322 39.1796 35.6802 38.9876 35.7762C38.1716 36.1122 37.4036 36.4482 36.7316 36.8802C35.9156 37.4082 35.2916 38.0802 34.9076 38.8482C34.8596 38.8482 34.8596 38.8962 34.8596 38.8962C34.4276 39.7602 34.1876 40.6242 34.2356 41.5842C34.2356 43.7442 35.2916 45.2322 37.2116 45.9522C37.7876 46.1442 38.3636 46.2882 38.9396 46.3362C39.1316 46.3842 39.3236 46.3842 39.5636 46.3842C40.2836 46.4322 41.0996 46.3842 41.9156 46.2402C42.2516 46.1922 42.5876 46.0962 42.9716 46.0002C43.3076 45.9042 43.7396 45.8082 44.1716 45.6162C44.8436 45.3282 45.5156 44.9442 46.1396 44.4642C46.7156 43.9362 47.1956 43.3602 47.4836 42.7362C47.5316 42.5922 47.5796 42.4962 47.6276 42.4002V46.0482H50.7476H52.7636C51.7076 45.5202 50.7476 44.6562 50.7476 42.1602V32.1282C50.7476 30.5922 50.5556 29.0562 50.0276 27.9042C48.6836 25.0722 45.5636 24.0642 42.9716 24.0642C40.5236 24.0642 38.5556 24.8802 37.0676 26.4162C35.4356 28.1922 34.9556 30.3042 35.3396 31.5522ZM47.6276 31.6962V38.1762C47.6756 39.7122 47.7236 41.3922 47.1476 42.5442C46.8596 43.1202 46.4276 43.6482 45.8516 44.1282C45.2756 44.5602 44.6036 44.8962 43.9796 45.0882C43.5476 45.2322 43.1636 45.3282 42.8276 45.3762C42.4916 45.4242 42.1556 45.4722 41.8676 45.4722C41.0996 45.4722 40.3796 45.3282 39.8036 45.1362C39.6116 45.0882 39.4676 44.9922 39.2756 44.9442C38.8436 44.7522 38.5076 44.5122 38.1716 44.2242C37.0196 42.8802 36.6836 41.3442 37.0196 39.7602C37.0196 39.7122 37.0196 39.7122 37.0196 39.7122C37.1636 39.1842 37.3076 38.6082 37.7396 37.9842C38.1236 37.4562 38.6516 36.9282 39.3716 36.4482C39.5156 36.3522 39.6596 36.2562 39.8516 36.1602C40.3316 35.8722 40.8596 35.5842 41.5316 35.2962C42.2516 35.0082 43.0676 34.7202 43.8356 34.3842C44.6036 34.0482 45.2756 33.7602 45.8996 33.3762C46.1876 33.1842 46.4756 32.9922 46.7156 32.8002C47.0036 32.5602 47.2436 32.3202 47.3876 32.0802C47.4836 31.9362 47.5796 31.7922 47.6276 31.6962ZM73.2248 19.0242C72.8888 19.0242 72.5528 19.0722 72.2168 19.1682C70.4408 19.7442 69.3848 21.2802 68.8088 22.9602C68.5688 23.6322 68.4248 24.3522 68.3768 24.6882C67.1288 24.3042 65.8328 24.0642 64.4888 24.0642C58.7768 24.0642 54.1208 28.0002 54.1208 32.8962C54.1208 35.3442 55.3208 37.6962 57.4328 39.3762C57.3848 39.3762 57.3368 39.4242 57.2888 39.4722C56.8088 39.7602 56.4248 40.2402 56.0408 40.8162C55.1288 42.2082 55.0808 43.8882 55.5608 45.2322C56.2808 47.1042 58.1528 48.2562 59.7848 48.9762C65.5928 51.2322 71.1128 52.0002 72.8888 54.4002C73.5608 55.6962 72.8408 57.1842 71.6888 58.0482C71.4008 58.2402 70.9688 58.5282 70.1048 58.9602C65.8328 60.7842 60.4088 60.4002 57.4328 58.9602C55.0808 57.7122 55.1768 55.9362 56.1367 54.3522C56.4728 53.7762 57.0488 53.2482 57.0488 52.5282C57.0488 51.7122 56.3288 50.9922 55.5128 50.9922C54.4088 51.1362 54.0248 51.7602 53.7848 52.6722C53.4968 53.9202 53.7368 55.6002 54.3608 56.7522C54.6488 57.2322 54.9848 57.7122 55.4648 58.1442C56.2808 58.8162 56.9528 59.2482 57.8648 59.5842C60.9368 60.7842 65.7368 61.0722 69.7208 59.4882C70.5848 59.1522 71.5448 58.7202 72.2168 58.1922C72.8408 57.6642 73.3208 57.0402 73.7048 56.3202C74.3768 55.0722 74.5208 53.7762 74.0888 52.5282C72.7928 48.7842 66.5528 47.9202 63.8168 47.0562C60.0728 45.8562 56.6648 44.7522 56.2328 42.6882C56.1367 41.4882 56.5688 40.4322 57.4808 39.7602C57.5768 39.7122 57.6728 39.6642 57.7688 39.6162C59.6408 41.0082 62.0408 41.7282 64.4888 41.7282C70.2008 41.7282 74.8568 37.7922 74.8568 32.8962C74.8568 29.4402 72.4568 26.2722 68.7608 24.8322C69.0008 23.8242 69.3368 22.6242 70.4408 22.0482C70.9208 21.8082 71.4008 21.7602 71.8328 21.8082C72.5528 21.9522 73.2248 22.2882 73.8968 22.0962C74.4728 21.9042 74.9048 21.4722 75.0008 20.8482C75.1448 19.9842 74.5688 19.2162 73.7048 19.0722C73.5608 19.0242 73.4168 19.0242 73.2248 19.0242ZM63.6248 24.5442C66.6968 24.5442 69.6248 26.6562 71.1128 29.8242C73.0808 34.0962 71.7368 38.9442 68.0888 40.6722C64.3928 42.4002 59.8328 40.2882 57.8648 36.0162C55.8968 31.6962 57.2408 26.8482 60.8888 25.1682C61.7528 24.7362 62.6648 24.5442 63.6248 24.5442ZM79.638 19.1202C78.534 19.1202 77.67 20.0322 77.67 21.0882C77.67 22.1922 78.534 23.0562 79.638 23.0562C80.694 23.0562 81.606 22.1922 81.606 21.0882C81.606 20.0322 80.694 19.1202 79.638 19.1202ZM81.606 24.0642C81.126 25.2642 78.966 26.7522 77.286 26.7522C78.342 27.2322 78.486 28.1922 78.486 32.9442V42.1602C78.486 44.6562 77.478 45.5202 76.47 46.0482H83.622C82.566 45.5202 81.606 44.6562 81.606 42.1602V27.5682V24.0642ZM94.7921 24.0642C94.1681 24.1122 93.4481 24.2562 92.7281 24.4482C91.5281 24.7362 90.2801 25.2642 89.0801 26.1762C87.8801 27.0882 86.8241 28.3842 86.0561 30.1122C85.2881 31.8882 84.9041 34.0002 85.0481 36.5442C85.0481 36.8322 85.0961 37.1202 85.1441 37.4082C85.9121 44.4642 92.9681 47.8722 99.4961 45.2802C100.168 44.9922 100.936 44.5602 101.608 44.0322C102.472 43.3602 103.048 42.5922 103.432 41.8722C103.48 41.7762 103.528 41.6802 103.576 41.5842C104.008 40.6722 104.056 39.9042 104.104 39.4722C104.104 39.3762 104.104 39.2802 104.104 39.2322H103.72C103.72 39.2802 103.72 39.3762 103.72 39.4242C103.672 39.8562 103.624 40.5762 103.24 41.4402C103.192 41.5362 103.144 41.5842 103.096 41.6802C102.712 42.3522 102.184 43.0722 101.368 43.7442C100.696 44.2242 100.024 44.6082 99.3041 44.8962C98.7281 45.1362 98.1521 45.3282 97.6241 45.4242C95.8481 45.7122 94.3601 45.5202 92.7761 44.7042C91.9601 44.2242 91.1921 43.6002 90.5201 42.7842C89.8961 42.0162 89.3681 41.1042 88.9841 40.0962C88.6481 39.1842 88.4081 38.1762 88.2641 37.0242C88.2641 36.7842 88.2161 36.5922 88.2161 36.3522C88.0241 34.1922 88.1681 32.4162 88.5521 30.9762C88.8881 29.5362 89.5121 28.3842 90.2801 27.3762C91.0481 26.4162 91.9601 25.6962 92.9681 25.1682C93.5921 24.8322 94.2641 24.6402 94.8401 24.4962C95.6081 24.3522 96.3761 24.4002 97.0961 24.5442C99.3521 25.0722 100.408 26.7042 100.408 28.0482C100.408 28.9122 99.9761 29.6322 99.9281 30.5922C99.9281 31.2162 100.312 31.7922 100.936 32.0322C101.752 32.3202 102.616 31.9362 102.952 31.1202C103.144 30.3522 103.24 29.2002 102.808 27.9522C102.472 27.0882 101.896 26.3202 101.128 25.6962C100.456 25.1202 99.5921 24.6882 98.7281 24.4002C98.2001 24.2562 97.6721 24.1602 97.1441 24.1122C96.1841 23.9682 95.6081 24.0162 94.7921 24.0642ZM117.414 24.0642C111.366 24.0642 106.47 28.9602 106.47 35.0562C106.47 41.1042 111.366 46.0002 117.414 46.0002C123.51 46.0002 128.406 41.1042 128.406 35.0562C128.406 28.9602 123.51 24.0642 117.414 24.0642ZM115.782 24.7842C119.286 24.7842 123.03 27.7122 124.758 32.1762C126.87 37.6482 125.286 43.3602 121.254 44.8962C117.222 46.4802 112.23 43.3602 110.118 37.8882C108.006 32.4642 109.542 26.7522 113.574 25.1682C114.294 24.8802 115.062 24.7842 115.782 24.7842ZM141.861 12.4482V14.8482C142.341 13.7922 143.205 12.8322 145.701 12.8322H150.453C152.133 12.8802 153.285 13.5522 153.285 16.0482V42.1602C153.285 44.6562 152.277 45.5202 151.221 46.0482H158.421C157.365 45.5202 156.405 44.6562 156.405 42.1602V16.0482C156.405 13.5522 157.509 12.8802 159.189 12.8322H163.989C166.437 12.8322 167.301 13.7922 167.829 14.8482V12.4482H141.861ZM166.685 19.1202C165.581 19.1202 164.717 20.0322 164.717 21.0882C164.717 22.1922 165.581 23.0562 166.685 23.0562C167.741 23.0562 168.653 22.1922 168.653 21.0882C168.653 20.0322 167.741 19.1202 166.685 19.1202ZM168.653 24.0642C168.173 25.2642 166.013 26.7522 164.333 26.7522C165.389 27.2322 165.533 28.1922 165.533 32.9442V42.1602C165.533 44.6562 164.525 45.5202 163.517 46.0482H170.669C169.613 45.5202 168.653 44.6562 168.653 42.1602V27.5682V24.0642ZM184.431 23.9682C184.239 23.9682 184.047 24.0162 183.855 24.0162C183.759 24.0162 183.615 24.0162 183.519 24.0162C182.847 24.0642 181.983 24.2082 181.023 24.6882C180.207 25.0722 179.439 25.6482 178.767 26.4162C178.143 27.1842 177.663 28.0482 177.327 28.8642C177.279 29.0082 177.231 29.1522 177.231 29.2482V27.5682V24.0642C176.751 25.2642 174.591 26.7522 172.911 26.7522C173.967 27.2322 174.111 28.1922 174.111 32.9442V42.1602C174.111 44.6562 173.103 45.5202 172.095 46.0002H179.247C178.191 45.5202 177.231 44.6562 177.231 42.1602V32.5122C177.231 31.2642 177.327 30.0642 177.759 29.0082C178.047 28.2402 178.527 27.4242 179.151 26.7522C179.775 26.0802 180.495 25.5522 181.263 25.1682C182.127 24.7842 182.943 24.6402 183.519 24.6402C187.983 24.6402 189.135 28.7202 189.135 32.6082V46.0482H194.271C193.215 45.5202 192.255 44.6562 192.255 42.1602V32.7522C192.255 29.3922 191.439 27.2322 189.279 25.5522C188.415 24.8802 187.503 24.4962 186.591 24.2562C185.775 24.0162 185.055 23.9682 184.431 23.9682ZM199.307 13.9362C198.827 15.1362 196.667 16.6242 194.987 16.6242C196.043 17.1042 196.187 18.0162 196.187 22.8162V24.0162H194.267V24.4002H196.187V47.0082C196.187 50.7042 198.011 52.1922 200.075 52.1922H201.323C200.267 51.6642 199.307 50.8002 199.307 48.3522V24.4002H202.427V24.0162H199.307V13.9362ZM213.883 24.0642C207.835 24.0642 202.939 28.9602 202.939 35.0562C202.939 41.1042 207.835 46.0002 213.883 46.0002C219.979 46.0002 224.875 41.1042 224.875 35.0562C224.875 28.9602 219.979 24.0642 213.883 24.0642ZM212.251 24.7842C215.755 24.7842 219.499 27.7122 221.227 32.1762C223.339 37.6482 221.755 43.3602 217.723 44.8962C213.691 46.4802 208.699 43.3602 206.587 37.8882C204.475 32.4642 206.011 26.7522 210.043 25.1682C210.763 24.8802 211.531 24.7842 212.251 24.7842Z" fill="#171616"/>
</svg>
